<svg width="16" height="16" viewBox="0 0 16 16" fill="none" xmlns="http://www.w3.org/2000/svg">
<g clip-path="url(#clip0_1_3249)">
<path d="M8.36865 16C10.4904 16 12.5252 15.1571 14.0255 13.6569C15.5258 12.1566 16.3687 10.1217 16.3687 8C16.3687 5.87827 15.5258 3.84344 14.0255 2.34315C12.5252 0.842855 10.4904 0 8.36865 0C6.24692 0 4.21209 0.842855 2.7118 2.34315C1.21151 3.84344 0.368652 5.87827 0.368652 8C0.368652 10.1217 1.21151 12.1566 2.7118 13.6569C4.21209 15.1571 6.24692 16 8.36865 16ZM11.8999 6.53125L7.8999 10.5312C7.60615 10.825 7.13115 10.825 6.84053 10.5312L4.84053 8.53125C4.54678 8.2375 4.54678 7.7625 4.84053 7.47188C5.13428 7.18125 5.60928 7.17813 5.8999 7.47188L7.36865 8.94063L10.8374 5.46875C11.1312 5.175 11.6062 5.175 11.8968 5.46875C12.1874 5.7625 12.1905 6.2375 11.8968 6.52812L11.8999 6.53125Z" fill="#73898E"/>
</g>
<defs>
<clipPath id="clip0_1_3249">
<rect width="16" height="16" fill="white"/>
</clipPath>
</defs>
</svg>
