<svg width="16" height="16" viewBox="0 0 16 16" fill="none" xmlns="http://www.w3.org/2000/svg">
<g clip-path="url(#clip0_1_264)">
<path d="M8.36875 16C10.4905 16 12.5253 15.1571 14.0256 13.6569C15.5259 12.1566 16.3688 10.1217 16.3688 8C16.3688 5.87827 15.5259 3.84344 14.0256 2.34315C12.5253 0.842855 10.4905 0 8.36875 0C6.24702 0 4.21219 0.842855 2.7119 2.34315C1.21161 3.84344 0.368752 5.87827 0.368752 8C0.368752 10.1217 1.21161 12.1566 2.7119 13.6569C4.21219 15.1571 6.24702 16 8.36875 16ZM11.9 6.53125L7.9 10.5312C7.60625 10.825 7.13125 10.825 6.84063 10.5312L4.84063 8.53125C4.54688 8.2375 4.54688 7.7625 4.84063 7.47188C5.13438 7.18125 5.60938 7.17813 5.9 7.47188L7.36875 8.94063L10.8375 5.46875C11.1313 5.175 11.6063 5.175 11.8969 5.46875C12.1875 5.7625 12.1906 6.2375 11.8969 6.52812L11.9 6.53125Z" fill="#73898E"/>
</g>
<defs>
<clipPath id="clip0_1_264">
<rect width="16" height="16" fill="white"/>
</clipPath>
</defs>
</svg>
