<svg width="16" height="16" viewBox="0 0 16 16" fill="none" xmlns="http://www.w3.org/2000/svg">
<g clip-path="url(#clip0_1_56)">
<path d="M8.36874 16C10.4905 16 12.5253 15.1571 14.0256 13.6569C15.5259 12.1566 16.3687 10.1217 16.3687 8C16.3687 5.87827 15.5259 3.84344 14.0256 2.34315C12.5253 0.842855 10.4905 0 8.36874 0C6.24701 0 4.21218 0.842855 2.71189 2.34315C1.2116 3.84344 0.368744 5.87827 0.368744 8C0.368744 10.1217 1.2116 12.1566 2.71189 13.6569C4.21218 15.1571 6.24701 16 8.36874 16ZM11.9 6.53125L7.89999 10.5312C7.60624 10.825 7.13124 10.825 6.84062 10.5312L4.84062 8.53125C4.54687 8.2375 4.54687 7.7625 4.84062 7.47188C5.13437 7.18125 5.60937 7.17813 5.89999 7.47188L7.36874 8.94063L10.8375 5.46875C11.1312 5.175 11.6062 5.175 11.8969 5.46875C12.1875 5.7625 12.1906 6.2375 11.8969 6.52812L11.9 6.53125Z" fill="#73898E"/>
</g>
<defs>
<clipPath id="clip0_1_56">
<rect width="16" height="16" fill="white"/>
</clipPath>
</defs>
</svg>
