<svg width="35" height="34" viewBox="0 0 35 34" fill="none" xmlns="http://www.w3.org/2000/svg">
<path d="M31.9477 18.7685C30.8009 19.073 29.6194 19.2272 28.4328 19.2271C24.8197 19.2271 21.4267 17.8225 18.8781 15.2738C17.2044 13.5906 16.0012 11.4981 15.3884 9.20488C14.7755 6.91169 14.7744 4.49792 15.3851 2.20416C15.4614 1.91737 15.4609 1.61556 15.3837 1.32902C15.3065 1.04247 15.1553 0.781262 14.9453 0.571593C14.7353 0.361923 14.4739 0.211165 14.1872 0.134441C13.9005 0.0577171 13.5987 0.0577256 13.3121 0.134465C10.4405 0.899699 7.82062 2.4066 5.71528 4.504C-0.881331 11.1006 -0.881331 21.8383 5.71528 28.4383C7.28325 30.015 9.14836 31.2651 11.2027 32.1162C13.257 32.9673 15.4597 33.4026 17.6833 33.3968C19.9063 33.403 22.1085 32.9681 24.1623 32.1173C26.216 31.2664 28.0806 30.0165 29.6479 28.44C31.7469 26.3343 33.2545 23.713 34.0191 20.8398C34.0951 20.5532 34.0945 20.2516 34.0173 19.9652C33.9402 19.6789 33.7892 19.4178 33.5795 19.2081C33.3698 18.9984 33.1087 18.8474 32.8223 18.7703C32.536 18.6931 32.2344 18.6925 31.9477 18.7685ZM27.2567 26.0471C26.0026 27.308 24.5109 28.3077 22.868 28.9883C21.225 29.6689 19.4633 30.0169 17.685 30.0122C15.906 30.0166 14.1438 29.6683 12.5003 28.9874C10.8568 28.3065 9.36455 27.3066 8.1099 26.0454C2.83328 20.7671 2.83328 12.1769 8.1099 6.89862C9.12952 5.88014 10.3067 5.0327 11.5961 4.38893C11.4073 6.82426 11.7466 9.27163 12.5907 11.5638C13.4347 13.8559 14.7637 15.9388 16.4868 17.6702C18.2143 19.3986 20.2966 20.7313 22.5897 21.576C24.8829 22.4208 27.3321 22.7574 29.7681 22.5626C29.1208 23.8498 28.2731 25.026 27.2567 26.0471Z" fill="#F1C40F"/>
</svg>
