<svg width="66" height="20" viewBox="0 0 66 20" fill="none" xmlns="http://www.w3.org/2000/svg">
<path d="M61.9576 20V10.8919H64.6231L65.0193 7.32578H61.9576V5.05432C61.9576 4.02527 62.2063 3.32071 63.4874 3.32071H65.1108V0.141321C64.321 0.0437405 63.527 -0.0033761 62.7326 0.000187992C60.3766 0.000187992 58.759 1.65823 58.759 4.70204V7.31912H56.1108V10.8852H58.7648V20H61.9576Z" fill="white"/>
<path d="M21.1108 3.9006C20.3386 4.21303 19.4982 4.43788 18.6325 4.52545C19.5313 4.02471 20.2043 3.23362 20.5253 2.3006C19.682 2.77111 18.7581 3.10104 17.7947 3.27575C17.392 2.87202 16.905 2.5504 16.364 2.33091C15.8229 2.11143 15.2395 1.99879 14.6501 2.00001C12.2651 2.00001 10.3471 3.81303 10.3471 6.03788C10.3471 6.3503 10.3875 6.66273 10.4531 6.96332C6.88202 6.78817 3.69707 5.18817 1.57965 2.73847C1.19384 3.3565 0.991658 4.06019 0.994147 4.77634C0.994147 6.17752 1.75379 7.41302 2.91219 8.13965C2.22953 8.11444 1.56285 7.93846 0.966386 7.62604V7.67575C0.966386 9.63787 2.4453 11.2639 4.41633 11.6379C4.04625 11.728 3.66554 11.7742 3.28318 11.7752C3.00304 11.7752 2.73805 11.7491 2.47053 11.7136C3.01566 13.3136 4.60309 14.4757 6.49337 14.5136C5.01446 15.6 3.16204 16.2391 1.15062 16.2391C0.789725 16.2391 0.456592 16.2272 0.11084 16.1894C2.01878 17.3373 4.28257 18 6.7205 18C14.6349 18 18.9657 11.8509 18.9657 6.51362C18.9657 6.33847 18.9657 6.16332 18.953 5.98817C19.7909 5.41303 20.5253 4.7006 21.1108 3.9006Z" fill="white"/>
</svg>
