<svg width="66" height="20" viewBox="0 0 66 20" fill="none" xmlns="http://www.w3.org/2000/svg">
<path d="M61.9577 20V10.8919H64.6231L65.0194 7.32578H61.9577V5.05432C61.9577 4.02527 62.2064 3.32071 63.4875 3.32071H65.1109V0.141321C64.3211 0.0437405 63.5271 -0.0033761 62.7327 0.000187992C60.3767 0.000187992 58.7591 1.65823 58.7591 4.70204V7.31912H56.1109V10.8852H58.7649V20H61.9577Z" fill="white"/>
<path d="M21.1109 3.9006C20.3387 4.21303 19.4983 4.43788 18.6326 4.52545C19.5314 4.02471 20.2044 3.23362 20.5254 2.3006C19.6821 2.77111 18.7582 3.10104 17.7947 3.27575C17.3921 2.87202 16.9051 2.5504 16.364 2.33091C15.823 2.11143 15.2396 1.99879 14.6502 2.00001C12.2652 2.00001 10.3472 3.81303 10.3472 6.03788C10.3472 6.3503 10.3876 6.66273 10.4532 6.96332C6.88211 6.78817 3.69716 5.18817 1.57975 2.73847C1.19393 3.3565 0.991749 4.06019 0.994238 4.77634C0.994238 6.17752 1.75388 7.41302 2.91228 8.13965C2.22962 8.11444 1.56294 7.93846 0.966478 7.62604V7.67575C0.966478 9.63787 2.44539 11.2639 4.41642 11.6379C4.04634 11.728 3.66563 11.7741 3.28327 11.7752C3.00313 11.7752 2.73814 11.7491 2.47062 11.7136C3.01575 13.3136 4.60318 14.4757 6.49346 14.5136C5.01455 15.6 3.16213 16.2391 1.15071 16.2391C0.789816 16.2391 0.456683 16.2272 0.110931 16.1894C2.01888 17.3373 4.28267 18 6.72059 18C14.635 18 18.9658 11.8509 18.9658 6.51362C18.9658 6.33847 18.9658 6.16332 18.9531 5.98817C19.791 5.41303 20.5254 4.7006 21.1109 3.9006Z" fill="white"/>
</svg>
