<svg width="35" height="34" viewBox="0 0 35 34" fill="none" xmlns="http://www.w3.org/2000/svg">
<path d="M9.0998 17.0332C9.0998 21.7056 12.9007 25.5066 17.5732 25.5066C22.2457 25.5066 26.0466 21.7056 26.0466 17.0332C26.0466 12.3607 22.2457 8.5598 17.5732 8.5598C12.9007 8.5598 9.0998 12.3607 9.0998 17.0332ZM17.5732 11.9444C20.379 11.9444 22.662 14.2273 22.662 17.0332C22.662 19.839 20.379 22.122 17.5732 22.122C14.7673 22.122 12.4844 19.839 12.4844 17.0332C12.4844 14.2273 14.7673 11.9444 17.5732 11.9444ZM15.8775 28.8793H19.2621V33.9563H15.8775V28.8793ZM15.8775 0.110107H19.2621V5.18703H15.8775V0.110107ZM0.646729 15.3409H5.72365V18.7255H0.646729V15.3409ZM29.416 15.3409H34.4929V18.7255H29.416V15.3409ZM4.40534 27.8013L7.99304 24.2103L10.3877 26.6032L6.79996 30.1943L4.40534 27.8013ZM24.7486 7.46149L28.3397 3.87042L30.7326 6.26334L27.1415 9.85441L24.7486 7.46149ZM7.99811 9.85611L4.40704 6.26503L6.80165 3.87211L10.3893 7.46318L7.99811 9.85611ZM30.7326 27.803L28.3397 30.196L24.7486 26.6049L27.1415 24.212L30.7326 27.803Z" fill="#F39C12"/>
</svg>
