<svg width="102" height="44" viewBox="0 0 102 44" fill="none" xmlns="http://www.w3.org/2000/svg">
<rect x="0.961426" y="0.5" width="100.538" height="43" rx="21.5" fill="#1B1F20" stroke="#333333"/>
<path d="M37.7202 23.8019C36.5734 24.1065 35.3918 24.2607 34.2053 24.2605C30.5922 24.2605 27.1991 22.8559 24.6505 20.3073C22.9769 18.624 21.7737 16.5315 21.1608 14.2383C20.548 11.9451 20.5469 9.53136 21.1576 7.23761C21.2339 6.95081 21.2334 6.64901 21.1562 6.36246C21.079 6.07592 20.9278 5.81471 20.7178 5.60504C20.5078 5.39537 20.2463 5.24461 19.9597 5.16789C19.673 5.09116 19.3712 5.09117 19.0845 5.16791C16.2129 5.93315 13.5931 7.44005 11.4877 9.53745C4.89113 16.1341 4.89113 26.8718 11.4877 33.4718C13.0557 35.0485 14.9208 36.2986 16.9751 37.1497C19.0294 38.0008 21.2321 38.436 23.4557 38.4302C25.6788 38.4365 27.881 38.0016 29.9347 37.1507C31.9885 36.2999 33.853 35.05 35.4204 33.4735C37.5193 31.3677 39.0269 28.7465 39.7916 25.8733C39.8675 25.5866 39.8669 25.285 39.7898 24.9987C39.7126 24.7123 39.5616 24.4513 39.3519 24.2416C39.1422 24.0319 38.8812 23.8809 38.5948 23.8037C38.3085 23.7266 38.0069 23.726 37.7202 23.8019V23.8019ZM33.0291 31.0805C31.7751 32.3415 30.2834 33.3412 28.6404 34.0218C26.9974 34.7024 25.2358 35.0504 23.4574 35.0456C21.6785 35.05 19.9163 34.7017 18.2728 34.0209C16.6292 33.34 15.137 32.34 13.8824 31.0788C8.60574 25.8005 8.60574 17.2104 13.8824 11.9321C14.902 10.9136 16.0791 10.0661 17.3685 9.42237C17.1798 11.8577 17.519 14.3051 18.3631 16.5972C19.2072 18.8894 20.5362 20.9723 22.2593 22.7036C23.9868 24.4321 26.0691 25.7648 28.3622 26.6095C30.6553 27.4542 33.1045 27.7908 35.5405 27.5961C34.8932 28.8833 34.0455 30.0594 33.0291 31.0805V31.0805Z" fill="#F1C40F"/>
<path d="M71.8251 22.0334C71.8251 26.7059 75.6261 30.5068 80.2985 30.5068C84.971 30.5068 88.7719 26.7059 88.7719 22.0334C88.7719 17.361 84.971 13.56 80.2985 13.56C75.6261 13.56 71.8251 17.361 71.8251 22.0334ZM80.2985 16.9447C83.1044 16.9447 85.3873 19.2276 85.3873 22.0334C85.3873 24.8393 83.1044 27.1222 80.2985 27.1222C77.4927 27.1222 75.2098 24.8393 75.2098 22.0334C75.2098 19.2276 77.4927 16.9447 80.2985 16.9447ZM78.6028 33.8796H81.9875V38.9565H78.6028V33.8796ZM78.6028 5.11035H81.9875V10.1873H78.6028V5.11035ZM63.3721 20.3411H68.449V23.7257H63.3721V20.3411ZM92.1413 20.3411H97.2182V23.7257H92.1413V20.3411ZM67.1307 32.8016L70.7184 29.2105L73.113 31.6034L69.5253 35.1945L67.1307 32.8016ZM87.4739 12.4617L91.065 8.87066L93.4579 11.2636L89.8668 14.8547L87.4739 12.4617ZM70.7235 14.8564L67.1324 11.2653L69.527 8.87235L73.1147 12.4634L70.7235 14.8564ZM93.4579 32.8033L91.065 35.1962L87.4739 31.6051L89.8668 29.2122L93.4579 32.8033Z" fill="#F39C12"/>
<circle cx="78.6061" cy="22.0666" r="18.6154" fill="#F1F1F1"/>
</svg>
