<svg width="110" height="52" viewBox="0 0 110 52" fill="none" xmlns="http://www.w3.org/2000/svg">
<g filter="url(#filter0_d_0_254)">
<rect x="4.96155" y="0.5" width="100.538" height="43" rx="21.5" fill="#1B1F20" stroke="#333333"/>
<path d="M41.7203 23.8019C40.5734 24.1065 39.3919 24.2607 38.2053 24.2605C34.5923 24.2605 31.1992 22.8559 28.6506 20.3073C26.977 18.624 25.7738 16.5315 25.1609 14.2383C24.548 11.9451 24.5469 9.53136 25.1576 7.23761C25.2339 6.95081 25.2334 6.64901 25.1562 6.36246C25.079 6.07592 24.9279 5.81471 24.7178 5.60504C24.5078 5.39537 24.2464 5.24461 23.9597 5.16789C23.673 5.09116 23.3712 5.09117 23.0846 5.16791C20.213 5.93315 17.5931 7.44005 15.4878 9.53745C8.89118 16.1341 8.89118 26.8718 15.4878 33.4718C17.0558 35.0485 18.9209 36.2986 20.9752 37.1497C23.0295 38.0008 25.2322 38.436 27.4558 38.4302C29.6788 38.4365 31.881 38.0016 33.9348 37.1507C35.9886 36.2999 37.8531 35.05 39.4204 33.4735C41.5194 31.3677 43.027 28.7465 43.7916 25.8733C43.8676 25.5866 43.867 25.285 43.7898 24.9987C43.7127 24.7123 43.5617 24.4513 43.352 24.2416C43.1423 24.0319 42.8812 23.8809 42.5949 23.8037C42.3085 23.7266 42.0069 23.726 41.7203 23.8019V23.8019ZM37.0292 31.0805C35.7751 32.3415 34.2835 33.3412 32.6405 34.0218C30.9975 34.7024 29.2359 35.0504 27.4575 35.0456C25.6785 35.05 23.9163 34.7017 22.2728 34.0209C20.6293 33.34 19.1371 32.34 17.8824 31.0788C12.6058 25.8005 12.6058 17.2104 17.8824 11.9321C18.902 10.9136 20.0792 10.0661 21.3686 9.42237C21.1798 11.8577 21.5191 14.3051 22.3632 16.5972C23.2073 18.8894 24.5363 20.9723 26.2593 22.7036C27.9868 24.4321 30.0691 25.7648 32.3623 26.6095C34.6554 27.4542 37.1046 27.7908 39.5406 27.5961C38.8933 28.8833 38.0456 30.0594 37.0292 31.0805V31.0805Z" fill="#F1C40F"/>
<path d="M75.8253 22.0334C75.8253 26.7059 79.6262 30.5068 84.2987 30.5068C88.9711 30.5068 92.772 26.7059 92.772 22.0334C92.772 17.361 88.9711 13.56 84.2987 13.56C79.6262 13.56 75.8253 17.361 75.8253 22.0334ZM84.2987 16.9447C87.1045 16.9447 89.3874 19.2276 89.3874 22.0334C89.3874 24.8393 87.1045 27.1222 84.2987 27.1222C81.4928 27.1222 79.2099 24.8393 79.2099 22.0334C79.2099 19.2276 81.4928 16.9447 84.2987 16.9447ZM82.603 33.8796H85.9876V38.9565H82.603V33.8796ZM82.603 5.11035H85.9876V10.1873H82.603V5.11035ZM67.3722 20.3411H72.4491V23.7257H67.3722V20.3411ZM96.1414 20.3411H101.218V23.7257H96.1414V20.3411ZM71.1308 32.8016L74.7185 29.2105L77.1131 31.6034L73.5254 35.1945L71.1308 32.8016ZM91.474 12.4617L95.0651 8.87066L97.458 11.2636L93.867 14.8547L91.474 12.4617ZM74.7236 14.8564L71.1325 11.2653L73.5271 8.87235L77.1148 12.4634L74.7236 14.8564ZM97.458 32.8033L95.0651 35.1962L91.474 31.6051L93.867 29.2122L97.458 32.8033Z" fill="#F39C12"/>
<circle cx="82.6064" cy="22.0666" r="18.6154" fill="#F1F1F1"/>
</g>
<defs>
<filter id="filter0_d_0_254" x="0.461548" y="0" width="109.538" height="52" filterUnits="userSpaceOnUse" color-interpolation-filters="sRGB">
<feFlood flood-opacity="0" result="BackgroundImageFix"/>
<feColorMatrix in="SourceAlpha" type="matrix" values="0 0 0 0 0 0 0 0 0 0 0 0 0 0 0 0 0 0 127 0" result="hardAlpha"/>
<feOffset dy="4"/>
<feGaussianBlur stdDeviation="2"/>
<feComposite in2="hardAlpha" operator="out"/>
<feColorMatrix type="matrix" values="0 0 0 0 0 0 0 0 0 0 0 0 0 0 0 0 0 0 0.25 0"/>
<feBlend mode="normal" in2="BackgroundImageFix" result="effect1_dropShadow_0_254"/>
<feBlend mode="normal" in="SourceGraphic" in2="effect1_dropShadow_0_254" result="shape"/>
</filter>
</defs>
</svg>
