<svg width="235" height="42" viewBox="0 0 235 42" fill="none" xmlns="http://www.w3.org/2000/svg">
<path d="M22.16 28.28C21.2 28.28 20.3267 28.0667 19.54 27.64C18.7667 27.2 18.1467 26.5667 17.68 25.74C17.2267 24.9 17 23.88 17 22.68V19.32C17 17.52 17.5067 16.14 18.52 15.18C19.5333 14.2067 20.9067 13.72 22.64 13.72C24.36 13.72 25.6867 14.18 26.62 15.1C27.5667 16.0067 28.04 17.24 28.04 18.8V18.88H25.44V18.72C25.44 18.2267 25.3333 17.78 25.12 17.38C24.92 16.98 24.6133 16.6667 24.2 16.44C23.7867 16.2 23.2667 16.08 22.64 16.08C21.7067 16.08 20.9733 16.3667 20.44 16.94C19.9067 17.5133 19.64 18.2933 19.64 19.28V22.72C19.64 23.6933 19.9067 24.48 20.44 25.08C20.9733 25.6667 21.72 25.96 22.68 25.96C23.64 25.96 24.34 25.7067 24.78 25.2C25.22 24.6933 25.44 24.0533 25.44 23.28V23.08H22.12V20.84H28.04V28H25.6V26.66H25.24C25.1467 26.8867 24.9933 27.1267 24.78 27.38C24.58 27.6333 24.2733 27.8467 23.86 28.02C23.4467 28.1933 22.88 28.28 22.16 28.28ZM35.3622 28.28C34.3755 28.28 33.4889 28.08 32.7022 27.68C31.9155 27.28 31.2955 26.7 30.8422 25.94C30.3889 25.18 30.1622 24.2667 30.1622 23.2V22.88C30.1622 21.8133 30.3889 20.9 30.8422 20.14C31.2955 19.38 31.9155 18.8 32.7022 18.4C33.4889 18 34.3755 17.8 35.3622 17.8C36.3489 17.8 37.2355 18 38.0222 18.4C38.8089 18.8 39.4289 19.38 39.8822 20.14C40.3355 20.9 40.5622 21.8133 40.5622 22.88V23.2C40.5622 24.2667 40.3355 25.18 39.8822 25.94C39.4289 26.7 38.8089 27.28 38.0222 27.68C37.2355 28.08 36.3489 28.28 35.3622 28.28ZM35.3622 26.04C36.1355 26.04 36.7755 25.7933 37.2822 25.3C37.7889 24.7933 38.0422 24.0733 38.0422 23.14V22.94C38.0422 22.0067 37.7889 21.2933 37.2822 20.8C36.7889 20.2933 36.1489 20.04 35.3622 20.04C34.5889 20.04 33.9489 20.2933 33.4422 20.8C32.9355 21.2933 32.6822 22.0067 32.6822 22.94V23.14C32.6822 24.0733 32.9355 24.7933 33.4422 25.3C33.9489 25.7933 34.5889 26.04 35.3622 26.04ZM46.3563 28C45.7029 28 45.1696 27.8 44.7563 27.4C44.3563 26.9867 44.1563 26.44 44.1563 25.76V20.16H41.6763V18.08H44.1563V15H46.6763V18.08H49.3963V20.16H46.6763V25.32C46.6763 25.72 46.8629 25.92 47.2363 25.92H49.1563V28H46.3563ZM51.6773 28V14H54.1973V19.3H54.5573C54.664 19.0867 54.8307 18.8733 55.0573 18.66C55.284 18.4467 55.584 18.2733 55.9573 18.14C56.344 17.9933 56.8307 17.92 57.4173 17.92C58.1907 17.92 58.864 18.1 59.4373 18.46C60.024 18.8067 60.4773 19.2933 60.7973 19.92C61.1173 20.5333 61.2773 21.2533 61.2773 22.08V28H58.7573V22.28C58.7573 21.5333 58.5707 20.9733 58.1973 20.6C57.8373 20.2267 57.3173 20.04 56.6373 20.04C55.864 20.04 55.264 20.3 54.8373 20.82C54.4107 21.3267 54.1973 22.04 54.1973 22.96V28H51.6773ZM68.5216 28.28C67.5349 28.28 66.6616 28.0733 65.9016 27.66C65.1549 27.2333 64.5682 26.64 64.1416 25.88C63.7282 25.1067 63.5216 24.2 63.5216 23.16V22.92C63.5216 21.88 63.7282 20.98 64.1416 20.22C64.5549 19.4467 65.1349 18.8533 65.8816 18.44C66.6282 18.0133 67.4949 17.8 68.4816 17.8C69.4549 17.8 70.3016 18.02 71.0216 18.46C71.7416 18.8867 72.3016 19.4867 72.7016 20.26C73.1016 21.02 73.3016 21.9067 73.3016 22.92V23.78H66.0816C66.1082 24.46 66.3616 25.0133 66.8416 25.44C67.3216 25.8667 67.9082 26.08 68.6016 26.08C69.3082 26.08 69.8282 25.9267 70.1616 25.62C70.4949 25.3133 70.7482 24.9733 70.9216 24.6L72.9816 25.68C72.7949 26.0267 72.5216 26.4067 72.1616 26.82C71.8149 27.22 71.3482 27.5667 70.7616 27.86C70.1749 28.14 69.4282 28.28 68.5216 28.28ZM66.1016 21.9H70.7416C70.6882 21.3267 70.4549 20.8667 70.0416 20.52C69.6416 20.1733 69.1149 20 68.4616 20C67.7816 20 67.2416 20.1733 66.8416 20.52C66.4416 20.8667 66.1949 21.3267 66.1016 21.9ZM75.5445 28V18.08H78.0245V19.38H78.3845C78.5445 19.0333 78.8445 18.7067 79.2845 18.4C79.7245 18.08 80.3912 17.92 81.2845 17.92C82.0579 17.92 82.7312 18.1 83.3045 18.46C83.8912 18.8067 84.3445 19.2933 84.6645 19.92C84.9845 20.5333 85.1445 21.2533 85.1445 22.08V28H82.6245V22.28C82.6245 21.5333 82.4379 20.9733 82.0645 20.6C81.7045 20.2267 81.1845 20.04 80.5045 20.04C79.7312 20.04 79.1312 20.3 78.7045 20.82C78.2779 21.3267 78.0645 22.04 78.0645 22.96V28H75.5445ZM93.8288 28.28C92.9354 28.28 92.2488 28.1267 91.7688 27.82C91.2888 27.5133 90.9354 27.1733 90.7088 26.8H90.3488V28H87.8688V14H90.3888V19.22H90.7488C90.8954 18.98 91.0888 18.7533 91.3288 18.54C91.5821 18.3267 91.9088 18.1533 92.3088 18.02C92.7221 17.8733 93.2288 17.8 93.8288 17.8C94.6288 17.8 95.3688 18 96.0488 18.4C96.7288 18.7867 97.2754 19.36 97.6888 20.12C98.1021 20.88 98.3088 21.8 98.3088 22.88V23.2C98.3088 24.28 98.1021 25.2 97.6888 25.96C97.2754 26.72 96.7288 27.3 96.0488 27.7C95.3688 28.0867 94.6288 28.28 93.8288 28.28ZM93.0688 26.08C93.8421 26.08 94.4888 25.8333 95.0088 25.34C95.5288 24.8333 95.7888 24.1 95.7888 23.14V22.94C95.7888 21.98 95.5288 21.2533 95.0088 20.76C94.5021 20.2533 93.8554 20 93.0688 20C92.2954 20 91.6488 20.2533 91.1288 20.76C90.6088 21.2533 90.3488 21.98 90.3488 22.94V23.14C90.3488 24.1 90.6088 24.8333 91.1288 25.34C91.6488 25.8333 92.2954 26.08 93.0688 26.08ZM104.403 28.16C103.629 28.16 102.949 27.9867 102.363 27.64C101.789 27.28 101.343 26.7867 101.023 26.16C100.703 25.5333 100.543 24.8133 100.543 24V18.08H103.063V23.8C103.063 24.5467 103.243 25.1067 103.603 25.48C103.976 25.8533 104.503 26.04 105.183 26.04C105.956 26.04 106.556 25.7867 106.983 25.28C107.409 24.76 107.623 24.04 107.623 23.12V18.08H110.143V28H107.663V26.7H107.303C107.143 27.0333 106.843 27.36 106.403 27.68C105.963 28 105.296 28.16 104.403 28.16ZM112.947 28V18.08H115.427V19.2H115.787C115.934 18.8 116.174 18.5067 116.507 18.32C116.854 18.1333 117.254 18.04 117.707 18.04H118.907V20.28H117.667C117.027 20.28 116.5 20.4533 116.087 20.8C115.674 21.1333 115.467 21.6533 115.467 22.36V28H112.947ZM120.045 23.08V22.76C120.045 21.72 120.252 20.8333 120.665 20.1C121.078 19.3533 121.625 18.7867 122.305 18.4C122.998 18 123.752 17.8 124.565 17.8C125.472 17.8 126.158 17.96 126.625 18.28C127.092 18.6 127.432 18.9333 127.645 19.28H128.005V18.08H130.485V29.76C130.485 30.44 130.285 30.98 129.885 31.38C129.485 31.7933 128.952 32 128.285 32H121.645V29.8H127.405C127.778 29.8 127.965 29.6 127.965 29.2V26.62H127.605C127.472 26.8333 127.285 27.0533 127.045 27.28C126.805 27.4933 126.485 27.6733 126.085 27.82C125.685 27.9667 125.178 28.04 124.565 28.04C123.752 28.04 122.998 27.8467 122.305 27.46C121.625 27.06 121.078 26.4933 120.665 25.76C120.252 25.0133 120.045 24.12 120.045 23.08ZM125.285 25.84C126.058 25.84 126.705 25.5933 127.225 25.1C127.745 24.6067 128.005 23.9133 128.005 23.02V22.82C128.005 21.9133 127.745 21.22 127.225 20.74C126.718 20.2467 126.072 20 125.285 20C124.512 20 123.865 20.2467 123.345 20.74C122.825 21.22 122.565 21.9133 122.565 22.82V23.02C122.565 23.9133 122.825 24.6067 123.345 25.1C123.865 25.5933 124.512 25.84 125.285 25.84ZM133.459 30.94V29.58H134.239C134.852 29.58 135.159 29.2733 135.159 28.66V28.02H134.819C134.286 28.02 133.839 27.86 133.479 27.54C133.132 27.22 132.959 26.8133 132.959 26.32C132.959 25.7867 133.132 25.3533 133.479 25.02C133.839 24.6867 134.286 24.52 134.819 24.52C135.366 24.52 135.812 24.6933 136.159 25.04C136.506 25.3733 136.679 25.8267 136.679 26.4V28.7C136.679 30.1933 135.932 30.94 134.439 30.94H133.459ZM148.41 28.28C147.33 28.28 146.377 28.0867 145.55 27.7C144.724 27.3133 144.077 26.76 143.61 26.04C143.144 25.32 142.91 24.4533 142.91 23.44V22.88H145.51V23.44C145.51 24.28 145.77 24.9133 146.29 25.34C146.81 25.7533 147.517 25.96 148.41 25.96C149.317 25.96 149.99 25.78 150.43 25.42C150.884 25.06 151.11 24.6 151.11 24.04C151.11 23.6533 150.997 23.34 150.77 23.1C150.557 22.86 150.237 22.6667 149.81 22.52C149.397 22.36 148.89 22.2133 148.29 22.08L147.83 21.98C146.87 21.7667 146.044 21.5 145.35 21.18C144.67 20.8467 144.144 20.4133 143.77 19.88C143.41 19.3467 143.23 18.6533 143.23 17.8C143.23 16.9467 143.43 16.22 143.83 15.62C144.244 15.0067 144.817 14.54 145.55 14.22C146.297 13.8867 147.17 13.72 148.17 13.72C149.17 13.72 150.057 13.8933 150.83 14.24C151.617 14.5733 152.23 15.08 152.67 15.76C153.124 16.4267 153.35 17.2667 153.35 18.28V18.88H150.75V18.28C150.75 17.7467 150.644 17.32 150.43 17C150.23 16.6667 149.937 16.4267 149.55 16.28C149.164 16.12 148.704 16.04 148.17 16.04C147.37 16.04 146.777 16.1933 146.39 16.5C146.017 16.7933 145.83 17.2 145.83 17.72C145.83 18.0667 145.917 18.36 146.09 18.6C146.277 18.84 146.55 19.04 146.91 19.2C147.27 19.36 147.73 19.5 148.29 19.62L148.75 19.72C149.75 19.9333 150.617 20.2067 151.35 20.54C152.097 20.8733 152.677 21.3133 153.09 21.86C153.504 22.4067 153.71 23.1067 153.71 23.96C153.71 24.8133 153.49 25.5667 153.05 26.22C152.624 26.86 152.01 27.3667 151.21 27.74C150.424 28.1 149.49 28.28 148.41 28.28ZM156.559 28L155.159 18.08H157.659L158.539 26.3H158.899L160.179 18.08H164.219L165.499 26.3H165.859L166.739 18.08H169.239L167.839 28H163.659L162.379 19.78H162.019L160.739 28H156.559ZM175.924 28.28C174.937 28.28 174.064 28.0733 173.304 27.66C172.557 27.2333 171.971 26.64 171.544 25.88C171.131 25.1067 170.924 24.2 170.924 23.16V22.92C170.924 21.88 171.131 20.98 171.544 20.22C171.957 19.4467 172.537 18.8533 173.284 18.44C174.031 18.0133 174.897 17.8 175.884 17.8C176.857 17.8 177.704 18.02 178.424 18.46C179.144 18.8867 179.704 19.4867 180.104 20.26C180.504 21.02 180.704 21.9067 180.704 22.92V23.78H173.484C173.511 24.46 173.764 25.0133 174.244 25.44C174.724 25.8667 175.311 26.08 176.004 26.08C176.711 26.08 177.231 25.9267 177.564 25.62C177.897 25.3133 178.151 24.9733 178.324 24.6L180.384 25.68C180.197 26.0267 179.924 26.4067 179.564 26.82C179.217 27.22 178.751 27.5667 178.164 27.86C177.577 28.14 176.831 28.28 175.924 28.28ZM173.504 21.9H178.144C178.091 21.3267 177.857 20.8667 177.444 20.52C177.044 20.1733 176.517 20 175.864 20C175.184 20 174.644 20.1733 174.244 20.52C173.844 20.8667 173.597 21.3267 173.504 21.9ZM186.947 28.28C186.16 28.28 185.42 28.0867 184.727 27.7C184.047 27.3 183.5 26.72 183.087 25.96C182.674 25.2 182.467 24.28 182.467 23.2V22.88C182.467 21.8 182.674 20.88 183.087 20.12C183.5 19.36 184.047 18.7867 184.727 18.4C185.407 18 186.147 17.8 186.947 17.8C187.547 17.8 188.047 17.8733 188.447 18.02C188.86 18.1533 189.194 18.3267 189.447 18.54C189.7 18.7533 189.894 18.98 190.027 19.22H190.387V14H192.907V28H190.427V26.8H190.067C189.84 27.1733 189.487 27.5133 189.007 27.82C188.54 28.1267 187.854 28.28 186.947 28.28ZM187.707 26.08C188.48 26.08 189.127 25.8333 189.647 25.34C190.167 24.8333 190.427 24.1 190.427 23.14V22.94C190.427 21.98 190.167 21.2533 189.647 20.76C189.14 20.2533 188.494 20 187.707 20C186.934 20 186.287 20.2533 185.767 20.76C185.247 21.2533 184.987 21.98 184.987 22.94V23.14C184.987 24.1 185.247 24.8333 185.767 25.34C186.287 25.8333 186.934 26.08 187.707 26.08ZM200.221 28.28C199.234 28.28 198.361 28.0733 197.601 27.66C196.854 27.2333 196.267 26.64 195.841 25.88C195.427 25.1067 195.221 24.2 195.221 23.16V22.92C195.221 21.88 195.427 20.98 195.841 20.22C196.254 19.4467 196.834 18.8533 197.581 18.44C198.327 18.0133 199.194 17.8 200.181 17.8C201.154 17.8 202.001 18.02 202.721 18.46C203.441 18.8867 204.001 19.4867 204.401 20.26C204.801 21.02 205.001 21.9067 205.001 22.92V23.78H197.781C197.807 24.46 198.061 25.0133 198.541 25.44C199.021 25.8667 199.607 26.08 200.301 26.08C201.007 26.08 201.527 25.9267 201.861 25.62C202.194 25.3133 202.447 24.9733 202.621 24.6L204.681 25.68C204.494 26.0267 204.221 26.4067 203.861 26.82C203.514 27.22 203.047 27.5667 202.461 27.86C201.874 28.14 201.127 28.28 200.221 28.28ZM197.801 21.9H202.441C202.387 21.3267 202.154 20.8667 201.741 20.52C201.341 20.1733 200.814 20 200.161 20C199.481 20 198.941 20.1733 198.541 20.52C198.141 20.8667 197.894 21.3267 197.801 21.9ZM207.244 28V18.08H209.724V19.38H210.084C210.244 19.0333 210.544 18.7067 210.984 18.4C211.424 18.08 212.09 17.92 212.984 17.92C213.757 17.92 214.43 18.1 215.004 18.46C215.59 18.8067 216.044 19.2933 216.364 19.92C216.684 20.5333 216.844 21.2533 216.844 22.08V28H214.324V22.28C214.324 21.5333 214.137 20.9733 213.764 20.6C213.404 20.2267 212.884 20.04 212.204 20.04C211.43 20.04 210.83 20.3 210.404 20.82C209.977 21.3267 209.764 22.04 209.764 22.96V28H207.244Z" fill="url(#paint0_linear_1_59)"/>
<rect x="0.5" y="0.5" width="234" height="41" rx="7.5" stroke="url(#paint1_linear_1_59)" stroke-dasharray="4 4"/>
<defs>
<linearGradient id="paint0_linear_1_59" x1="16" y1="21" x2="219" y2="21" gradientUnits="userSpaceOnUse">
<stop stop-color="#FCE300"/>
<stop offset="1" stop-color="#01C921"/>
</linearGradient>
<linearGradient id="paint1_linear_1_59" x1="0" y1="21" x2="235" y2="21" gradientUnits="userSpaceOnUse">
<stop stop-color="#FCE300"/>
<stop offset="1" stop-color="#01C921"/>
</linearGradient>
</defs>
</svg>
